HIERARCHY
ROOT Hips
{
  OFFSET 5.80788e-005 67.184 3.4734
  CHANNELS 6 Xposition Yposition Zposition Zrotation Xrotation Yrotation
  JOINT Chest
  {
    OFFSET 0 8.7983 -4.7612
    CHANNELS 3 Zrotation Xrotation Yrotation
    JOINT Chest2
    {
      OFFSET 0 8.0291 0.4195
      CHANNELS 3 Zrotation Xrotation Yrotation
      JOINT Chest3
      {
        OFFSET 0 9.9351 -2.2114
        CHANNELS 3 Zrotation Xrotation Yrotation
        JOINT Neck
        {
          OFFSET 0 22.3885 -0.4656
          CHANNELS 3 Zrotation Xrotation Yrotation
          JOINT Head
          {
            OFFSET -0.0001 12.643 3.4389
            CHANNELS 3 Zrotation Xrotation Yrotation
            End Site
            {
              OFFSET 0.0001 17.6655 0.5274
            }
          }
        }
        JOINT LeftCollar
        {
          OFFSET 2.2603 21.606 7.4023
          CHANNELS 3 Zrotation Xrotation Yrotation
          JOINT LeftShoulder
          {
            OFFSET 13.5163 -1.1332 -5.0146
            CHANNELS 3 Zrotation Xrotation Yrotation
            JOINT LeftElbow
            {
              OFFSET -0.0995 -28.05 -0.2431
              CHANNELS 3 Zrotation Xrotation Yrotation
              JOINT LeftWrist
              {
                OFFSET 0.0679 -23.3996 -0.1402
                CHANNELS 3 Zrotation Xrotation Yrotation
                JOINT LeftFinger1
                {
                  OFFSET 0.7932 -9.069 2.5189
                  CHANNELS 3 Zrotation Xrotation Yrotation
                  JOINT LeftFinger11
                  {
                    OFFSET -0.8272 -3.3923 0.5977
                    CHANNELS 3 Zrotation Xrotation Yrotation
                    JOINT LeftFinger12
                    {
                      OFFSET -0.5649 -2.3158 0.4082
                      CHANNELS 3 Zrotation Xrotation Yrotation
                      End Site
                      {
                        OFFSET -0.4919 -1.6479 0.2673
                      }
                    }
                  }
                }
                JOINT LeftFinger2
                {
                  OFFSET 0.9159 -9.2044 0.2193
                  CHANNELS 3 Zrotation Xrotation Yrotation
                  JOINT LeftFinger21
                  {
                    OFFSET 0.0117 -4.1944 -0.0248
                    CHANNELS 3 Zrotation Xrotation Yrotation
                    JOINT LeftFinger22
                    {
                      OFFSET 0.0071 -2.3249 -0.0142
                      CHANNELS 3 Zrotation Xrotation Yrotation
                      End Site
                      {
                        OFFSET -0.1475 -2.0882 0.0028
                      }
                    }
                  }
                }
                JOINT LeftFinger3
                {
                  OFFSET 0.6113 -8.7231 -2.0637
                  CHANNELS 3 Zrotation Xrotation Yrotation
                  JOINT LeftFinger31
                  {
                    OFFSET -0.1927 -3.8059 -0.2383
                    CHANNELS 3 Zrotation Xrotation Yrotation
                    JOINT LeftFinger32
                    {
                      OFFSET -0.1091 -2.1688 -0.1362
                      CHANNELS 3 Zrotation Xrotation Yrotation
                      End Site
                      {
                        OFFSET -0.2358 -1.9176 -0.0906
                      }
                    }
                  }
                }
                JOINT LeftFinger4
                {
                  OFFSET -0.6151 -8.0947 -3.5641
                  CHANNELS 3 Zrotation Xrotation Yrotation
                  JOINT LeftFinger41
                  {
                    OFFSET -0.4882 -2.341 -0.6462
                    CHANNELS 3 Zrotation Xrotation Yrotation
                    JOINT LeftFinger42
                    {
                      OFFSET -0.3575 -1.7167 -0.4742
                      CHANNELS 3 Zrotation Xrotation Yrotation
                      End Site
                      {
                        OFFSET -0.4187 -1.5237 -0.3496
                      }
                    }
                  }
                }
                JOINT LeftFinger0
                {
                  OFFSET -1.42 -1.8761 1.4223
                  CHANNELS 3 Zrotation Xrotation Yrotation
                  JOINT LeftFinger01
                  {
                    OFFSET -1.1471 -3.4929 2.6334
                    CHANNELS 3 Zrotation Xrotation Yrotation
                    JOINT LeftFinger02
                    {
                      OFFSET -0.823 -2.3 1.6571
                      CHANNELS 3 Zrotation Xrotation Yrotation
                      End Site
                      {
                        OFFSET -0.5822 -1.6914 1.1582
                      }
                    }
                  }
                }
              }
            }
          }
        }
        JOINT RightCollar
        {
          OFFSET -2.2603 21.606 7.4023
          CHANNELS 3 Zrotation Xrotation Yrotation
          JOINT RightShoulder
          {
            OFFSET -13.5187 -1.1334 -5.0155
            CHANNELS 3 Zrotation Xrotation Yrotation
            JOINT RightElbow
            {
              OFFSET 0.0994 -28.0499 -0.2431
              CHANNELS 3 Zrotation Xrotation Yrotation
              JOINT RightWrist
              {
                OFFSET -0.0679 -23.3996 -0.1402
                CHANNELS 3 Zrotation Xrotation Yrotation
                JOINT RightFinger1
                {
                  OFFSET -0.7932 -9.0691 2.5189
                  CHANNELS 3 Zrotation Xrotation Yrotation
                  JOINT RightFinger11
                  {
                    OFFSET 0.8272 -3.3923 0.5977
                    CHANNELS 3 Zrotation Xrotation Yrotation
                    JOINT RightFinger12
                    {
                      OFFSET 0.565 -2.3158 0.4082
                      CHANNELS 3 Zrotation Xrotation Yrotation
                      End Site
                      {
                        OFFSET 0.4919 -1.6479 0.2673
                      }
                    }
                  }
                }
                JOINT RightFinger2
                {
                  OFFSET -0.916 -9.2044 0.2193
                  CHANNELS 3 Zrotation Xrotation Yrotation
                  JOINT RightFinger21
                  {
                    OFFSET -0.0117 -4.1944 -0.0248
                    CHANNELS 3 Zrotation Xrotation Yrotation
                    JOINT RightFinger22
                    {
                      OFFSET -0.0071 -2.3249 -0.0142
                      CHANNELS 3 Zrotation Xrotation Yrotation
                      End Site
                      {
                        OFFSET 0.1475 -2.0882 0.0028
                      }
                    }
                  }
                }
                JOINT RightFinger3
                {
                  OFFSET -0.6113 -8.7231 -2.0637
                  CHANNELS 3 Zrotation Xrotation Yrotation
                  JOINT RightFinger31
                  {
                    OFFSET 0.1927 -3.8059 -0.2383
                    CHANNELS 3 Zrotation Xrotation Yrotation
                    JOINT RightFinger32
                    {
                      OFFSET 0.1091 -2.1688 -0.1362
                      CHANNELS 3 Zrotation Xrotation Yrotation
                      End Site
                      {
                        OFFSET 0.2358 -1.9176 -0.0906
                      }
                    }
                  }
                }
                JOINT RightFinger4
                {
                  OFFSET 0.6151 -8.0947 -3.564
                  CHANNELS 3 Zrotation Xrotation Yrotation
                  JOINT RightFinger41
                  {
                    OFFSET 0.4882 -2.341 -0.6462
                    CHANNELS 3 Zrotation Xrotation Yrotation
                    JOINT RightFinger42
                    {
                      OFFSET 0.3574 -1.7166 -0.4742
                      CHANNELS 3 Zrotation Xrotation Yrotation
                      End Site
                      {
                        OFFSET 0.4187 -1.5237 -0.3496
                      }
                    }
                  }
                }
                JOINT RightFinger0
                {
                  OFFSET 1.4199 -1.8761 1.4221
                  CHANNELS 3 Zrotation Xrotation Yrotation
                  JOINT RightFinger01
                  {
                    OFFSET 1.1472 -3.4929 2.6336
                    CHANNELS 3 Zrotation Xrotation Yrotation
                    JOINT RightFinger02
                    {
                      OFFSET 0.8229 -2.3 1.6571
                      CHANNELS 3 Zrotation Xrotation Yrotation
                      End Site
                      {
                        OFFSET 0.5822 -1.6914 1.1582
                      }
                    }
                  }
                }
              }
            }
          }
        }
      }
    }
  }
  JOINT RightHip
  {
    OFFSET -9.412 3.9771 -0.7758
    CHANNELS 3 Zrotation Xrotation Yrotation
    JOINT RightKnee
    {
      OFFSET -0.7531 -40.938 0
      CHANNELS 3 Zrotation Xrotation Yrotation
      JOINT RightAnkle
      {
        OFFSET 0 -40.1986 0
        CHANNELS 3 Zrotation Xrotation Yrotation
        JOINT RightToe
        {
          OFFSET 0 -4.4182 9.239
          CHANNELS 3 Zrotation Xrotation Yrotation
          End Site
          {
            OFFSET 0 0 6.1981
          }
        }
      }
    }
  }
  JOINT LeftHip
  {
    OFFSET 9.4119 3.9773 -0.7758
    CHANNELS 3 Zrotation Xrotation Yrotation
    JOINT LeftKnee
    {
      OFFSET 0.7532 -40.9383 0
      CHANNELS 3 Zrotation Xrotation Yrotation
      JOINT LeftAnkle
      {
        OFFSET 0 -40.1986 0
        CHANNELS 3 Zrotation Xrotation Yrotation
        JOINT LeftToe
        {
          OFFSET 0 -4.4182 9.239
          CHANNELS 3 Zrotation Xrotation Yrotation
          End Site
          {
            OFFSET 0 0 6.1981
          }
        }
      }
    }
  }
}
MOTION
Frames:	4
Frame Time:	0.0333333
5.80788e-005 67.184 3.4734 0 0 -0 0 0 -0 0 0 -0 0 0 -0 0 0 -0 0 0 -0 0 0 -12.5014 88.1196 14.2451 10.6914 -0.00160068 -0.00239207 0.000740045 -8.4365e-005 7.00714e-005 -9.52055e-007 9.93923e-017 -1.98785e-016 -1.59028e-015 9.93923e-017 -5.96354e-016 -1.59028e-015 -9.93923e-017 -5.96354e-016 -1.59028e-015 9.93923e-017 -1.98785e-016 -1.59028e-015 -0.0128176 0.00232552 8.52707e-005 9.93923e-017 5.96354e-016 -0 9.93923e-017 -1.98785e-016 -1.59028e-015 -0.0160551 0.00299681 0.000857156 -2.48481e-016 0 3.18055e-015 9.93923e-017 -1.98785e-016 -1.59028e-015 -0.0125865 0.0031206 0.00282719 0 1.98785e-016 -0 9.93923e-017 -1.98785e-016 -1.59028e-015 9.93923e-017 -5.96354e-016 -1.59028e-015 -9.93923e-017 -5.96354e-016 -1.59028e-015 -0.865644 0.16582 7.03859 -88.0329 10.2057 -10.5567 0.0015593 -0.00248883 -0.000788628 7.87605e-005 4.10553e-005 1.24965e-005 -3.97569e-016 -7.95139e-016 3.18055e-015 -1.98785e-016 -3.97569e-016 3.18055e-015 -1.98785e-016 0 3.18055e-015 -3.97569e-016 -7.95139e-016 3.18055e-015 0.0129473 0.00231697 -8.70038e-005 9.93923e-017 -7.95139e-016 1.59028e-015 -3.97569e-016 -7.95139e-016 3.18055e-015 0.0163314 0.00303369 -0.000872333 3.97569e-016 7.95139e-016 -3.18055e-015 -3.97569e-016 -7.95139e-016 3.18055e-015 0.0145763 0.00367772 -0.00326275 9.93923e-017 -3.97569e-016 -0 -3.97569e-016 -7.95139e-016 3.18055e-015 -1.98785e-016 -3.97569e-016 3.18055e-015 -1.98785e-016 0 3.18055e-015 3.42485 1.36937 -0.0640303 0.000136572 0.69354 0.00145564 -3.42573 -2.06297 -0.0607933 -3.19502e-024 0 -1.48106e-024 -3.42498 1.36123 0.0639712 -6.769e-005 0.712612 -0.0012277 3.42582 -2.07388 0.0612819 2.55305e-023 0 -2.31416e-026 
-0.00032473 10.516 -5.58433 -3.14591e-008 63.2548 -1.17389e-008 -0.282954 3.39868 -0.0495056 -0.564453 6.79757 -0.08238 -0.564454 6.79756 -0.0823802 -0.0220854 -21.3746 -0.0132919 -0.0695338 -19.9096 -0.0281739 -7.132 -0.173308 -12.5014 43.891 -46.3599 40.7334 -150.108 -69.1671 171.835 -5.89638 1.27389 -6.54582 4.57796e-007 2.26454e-006 -2.12779e-006 6.20706e-032 -2.38542e-015 1.49089e-015 1.58625e-032 -3.97569e-016 2.28602e-015 4.57796e-007 2.26454e-006 -2.12779e-006 -0.0128037 0.00231748 7.79202e-005 3.86217e-032 1.59028e-015 -1.39149e-015 4.57796e-007 2.26454e-006 -2.12779e-006 -0.0160484 0.00298811 0.00085634 6.36111e-015 3.57812e-015 -2.88238e-015 4.57796e-007 2.26454e-006 -2.12779e-006 -0.0125546 0.00310462 0.00281956 -3.18055e-015 2.38542e-015 7.95139e-016 4.57796e-007 2.26454e-006 -2.12779e-006 6.20706e-032 -2.38542e-015 1.49089e-015 1.58625e-032 -3.97569e-016 2.28602e-015 6.26324 -0.00771266 7.03597 -38.8373 -48.5852 -34.8843 156.272 -69.1618 -166.669 5.75258 1.14577 6.69901 3.18055e-015 5.56597e-015 8.74653e-015 -1.78431e-006 -1.66005e-007 -3.33012e-006 -9.54166e-015 -1.59028e-015 -1.98785e-016 3.18055e-015 5.56597e-015 8.74653e-015 0.012966 0.00231577 -9.22718e-005 -1.26376e-006 -5.99909e-007 -2.36682e-006 3.18055e-015 5.56597e-015 8.74653e-015 0.0163224 0.00304248 -0.000875329 2.3671e-006 -1.43748e-006 -1.89411e-006 3.18055e-015 5.56597e-015 8.74653e-015 0.0145795 0.00367124 -0.00326345 -3.18055e-015 1.43125e-014 4.96962e-015 3.18055e-015 5.56597e-015 8.74653e-015 -1.78431e-006 -1.66005e-007 -3.33012e-006 -9.54166e-015 -1.59028e-015 -1.98785e-016 -87.008 -36.2704 -76.8987 176.301 57.5119 179.464 -6.58306 9.27903 -2.49129 3.97569e-016 9.54166e-015 1.98785e-015 86.9724 -36.3331 76.8548 -176.207 57.5581 -179.515 6.59008 8.80397 2.48249 -7.41032e-006 -4.08632e-006 5.81016e-006 
-0.000535552 2.0986 -6.71283 4.92536e-009 73.8228 3.88358e-008 -0.337907 3.89981 -0.046177 -0.675008 7.79985 -0.0694801 -0.67501 7.79987 -0.0694801 0.250697 -25.1115 0.148559 0.126781 -23.1956 0.0506896 -8.29906 -0.201632 -12.5014 40.4684 -56.6656 48.2542 -165.137 -52.7674 150.753 -6.85973 1.48087 -7.60573 -2.96137e-006 6.95772e-006 1.04145e-005 -1.98785e-016 0 -5.54112e-015 -7.11078e-006 -1.67901e-006 -7.27522e-006 -2.96137e-006 6.95772e-006 1.04145e-005 -0.0128219 0.00232075 8.40002e-005 9.93923e-017 1.98785e-016 9.72181e-016 -2.96137e-006 6.95772e-006 1.04145e-005 -0.0160395 0.00298775 0.000850057 -4.96366e-006 8.76932e-006 1.40332e-006 -2.96137e-006 6.95772e-006 1.04145e-005 -0.0125768 0.00312202 0.00281592 -4.83553e-006 8.58554e-006 7.60794e-006 -2.96137e-006 6.95772e-006 1.04145e-005 -1.98785e-016 0 -5.54112e-015 -7.11078e-006 -1.67901e-006 -7.27522e-006 7.42978 -0.0360672 7.03554 -32.7026 -58.5627 -40.0431 169.122 -52.1626 -148.046 6.69348 1.33165 7.78439 -1.98785e-016 3.97569e-016 -1.26725e-015 8.79333e-033 3.97569e-016 -1.26725e-015 -1.98785e-016 -3.97569e-016 -1.2424e-015 -1.98785e-016 3.97569e-016 -1.26725e-015 0.0129439 0.00232498 -8.8199e-005 -1.98785e-016 0 2.07481e-015 -1.98785e-016 3.97569e-016 -1.26725e-015 0.0163328 0.00304399 -0.000871913 -3.97569e-016 1.19271e-014 -4.65902e-015 -1.98785e-016 3.97569e-016 -1.26725e-015 0.014588 0.00368946 -0.00326819 -5.96354e-016 -1.19271e-015 6.05051e-015 -1.98785e-016 3.97569e-016 -1.26725e-015 8.79333e-033 3.97569e-016 -1.26725e-015 -1.98785e-016 -3.97569e-016 -1.2424e-015 -105.637 -30.7661 -89.8888 177.124 38.4537 177.169 -6.42549 10.9017 -3.8637 -1.00214e-005 5.40518e-006 -6.88544e-006 105.605 -30.8496 89.8552 -177.038 38.5095 -177.213 6.44394 10.3501 3.84702 1.0358e-006 4.08037e-007 -1.00504e-006 
-0.000472486 4.25468 -6.48009 -4.10562e-008 71.4645 3.83486e-008 -0.323553 3.69016 -0.0488166 -0.645964 7.38052 -0.0769404 -0.645965 7.38052 -0.0769402 0.593251 -24.5206 0.353478 0.38865 -22.4029 0.155994 -8.00266 -0.194393 -12.5014 41.0906 -54.0593 46.1147 -162.624 -57.0654 154.779 -6.61522 1.42845 -7.33668 3.5863e-032 7.95139e-016 -2.5842e-015 -1.59028e-015 0 5.96354e-016 -0 0 5.46658e-016 3.5863e-032 7.95139e-016 -2.5842e-015 -0.0128239 0.00233559 8.26547e-005 1.59028e-015 -7.95139e-016 5.86415e-015 3.5863e-032 7.95139e-016 -2.5842e-015 -0.0160373 0.00300276 0.000859851 4.23207e-006 -9.42412e-006 -2.73761e-006 3.5863e-032 7.95139e-016 -2.5842e-015 -0.0125933 0.00313365 0.00282936 1.59028e-015 -1.19271e-015 3.23025e-016 3.5863e-032 7.95139e-016 -2.5842e-015 -1.59028e-015 0 5.96354e-016 -0 0 5.46658e-016 7.13351 -0.0287873 7.03564 -34.1401 -56.0263 -38.6238 166.972 -56.5748 -151.635 6.45463 1.28461 7.5089 -1.59028e-015 -7.95139e-016 -4.67144e-015 -5.57082e-006 -7.90914e-006 7.80326e-006 -7.95139e-016 0 3.8763e-015 -1.59028e-015 -7.95139e-016 -4.67144e-015 0.0129356 0.00231549 -8.58042e-005 -7.31053e-032 -7.95139e-016 -5.26779e-015 -1.59028e-015 -7.95139e-016 -4.67144e-015 0.0163199 0.00302974 -0.000874354 -7.95139e-016 1.11319e-014 -4.96962e-016 -1.59028e-015 -7.95139e-016 -4.67144e-015 0.0145724 0.00366849 -0.00325799 -3.18055e-015 -1.59028e-015 -3.97569e-016 -1.59028e-015 -7.95139e-016 -4.67144e-015 -5.57082e-006 -7.90914e-006 7.80326e-006 -7.95139e-016 0 3.8763e-015 -101.624 -32.2711 -87.224 176.962 43.277 177.816 -6.275 10.6639 -3.50351 -5.24983e-006 1.78019e-005 -1.0008e-005 101.593 -32.3478 87.1897 -176.876 43.329 -177.86 6.2898 10.1438 3.48849 1.23347e-005 1.03103e-005 3.78427e-006 
